<svg viewBox="0 0 24 24" xmlns="http://www.w3.org/2000/svg"><symbol viewBox="0 0 24 24" id="facebook"><title>facebook</title> <g> <path d="M20.007,3H3.993C3.445,3,3,3.445,3,3.993v16.013C3,20.555,3.445,21,3.993,21h8.621v-6.971h-2.346v-2.717h2.346V9.31
		c0-2.325,1.42-3.591,3.494-3.591c0.993,0,1.847,0.074,2.096,0.107v2.43l-1.438,0.001c-1.128,0-1.346,0.536-1.346,1.323v1.734h2.69
		l-0.35,2.717h-2.34V21h4.587C20.555,21,21,20.555,21,20.007V3.993C21,3.445,20.555,3,20.007,3z"/> </g>  </symbol><symbol viewBox="0 0 24 24" id="twitter-alt"><title>twitter-alt</title> <g> <path d="M22.23,5.924c-0.736,0.326-1.527,0.547-2.357,0.646c0.847-0.508,1.498-1.312,1.804-2.27
		c-0.793,0.47-1.671,0.812-2.606,0.996C18.324,4.498,17.257,4,16.077,4c-2.266,0-4.103,1.837-4.103,4.103
		c0,0.322,0.036,0.635,0.106,0.935C8.67,8.867,5.647,7.234,3.623,4.751C3.27,5.357,3.067,6.062,3.067,6.814
		c0,1.424,0.724,2.679,1.825,3.415c-0.673-0.021-1.305-0.206-1.859-0.513c0,0.017,0,0.034,0,0.052c0,1.988,1.414,3.647,3.292,4.023
		c-0.344,0.094-0.707,0.144-1.081,0.144c-0.264,0-0.521-0.026-0.772-0.074c0.522,1.63,2.038,2.816,3.833,2.85
		c-1.404,1.1-3.174,1.756-5.096,1.756c-0.331,0-0.658-0.019-0.979-0.057c1.816,1.164,3.973,1.843,6.29,1.843
		c7.547,0,11.675-6.252,11.675-11.675c0-0.178-0.004-0.355-0.012-0.531C20.985,7.47,21.68,6.747,22.23,5.924z"/> </g>  </symbol><symbol viewBox="0 0 24 24" id="twitter"><title>twitter</title> <g> <path d="M19,3H5C3.895,3,3,3.895,3,5v14c0,1.105,0.895,2,2,2h14c1.105,0,2-0.895,2-2V5C21,3.895,20.105,3,19,3z M16.466,9.71
		c0.004,0.099,0.007,0.198,0.007,0.298c0,3.045-2.318,6.556-6.556,6.556c-1.301,0-2.512-0.381-3.532-1.035
		c0.18,0.021,0.364,0.032,0.55,0.032c1.079,0,2.073-0.368,2.862-0.986c-1.008-0.019-1.859-0.685-2.152-1.6
		c0.141,0.027,0.285,0.041,0.433,0.041c0.21,0,0.414-0.028,0.607-0.081c-1.054-0.212-1.848-1.143-1.848-2.259
		c0-0.01,0-0.019,0-0.029c0.311,0.173,0.666,0.276,1.044,0.288c-0.618-0.413-1.025-1.118-1.025-1.918
		c0-0.422,0.114-0.818,0.312-1.158c1.136,1.394,2.834,2.311,4.749,2.407c-0.039-0.169-0.06-0.344-0.06-0.525
		c0-1.272,1.032-2.304,2.304-2.304c0.663,0,1.261,0.28,1.682,0.728c0.525-0.103,1.018-0.295,1.463-0.559
		c-0.172,0.538-0.537,0.99-1.013,1.275c0.466-0.056,0.91-0.18,1.323-0.363C17.306,8.979,16.916,9.385,16.466,9.71z"/> </g>  </symbol></svg>